# This file uses centimeters as units for non-parametric coordinates.

mtllib Rice with extra AAAAAAAAAAA.mtl
g default
v 0.707107 0.000000 -0.707107
v 0.000000 0.000000 -1.000000
v -0.707107 0.000000 -0.707107
v -1.000000 0.000000 0.000000
v -0.707107 0.000000 0.707107
v 0.000000 0.000000 1.000000
v 0.707107 -0.000001 0.707107
v 1.000000 0.000000 0.000000
v 0.654932 0.213826 -0.631906
v 0.000000 0.191738 -0.923879
v -0.626145 0.209073 -0.656263
v -0.913742 0.210162 0.020683
v -0.667051 0.205455 0.619067
v 0.032355 0.213715 0.903335
v 0.650416 0.222021 0.634942
v 0.916629 0.207835 -0.022432
v 0.480852 0.398343 -0.514788
v 0.000000 0.385664 -0.707107
v -0.492483 0.406183 -0.473577
v -0.713938 0.372920 -0.010864
v -0.465992 0.417898 0.505154
v -0.028388 0.376499 0.715740
v 0.523163 0.363022 0.480331
v 0.713440 0.371437 0.026965
v 0.284658 0.580146 -0.270994
v -0.014374 0.609693 -0.352604
v -0.256307 0.623562 -0.251371
v -0.405996 0.570713 0.008191
v -0.271072 0.619699 0.249268
v 0.027612 0.584624 0.389298
v 0.266630 0.582242 0.301302
v 0.396801 0.593844 -0.031884
v 0.025218 0.667339 -0.038855
vt 0.251331 0.240911
vt 0.488888 0.298207
vt 0.457275 0.338510
vt 0.261909 0.292624
vt 0.603891 0.474475
vt 0.554552 0.489002
vt 0.560169 0.714979
vt 0.516066 0.685974
vt 0.362389 0.846233
vt 0.351751 0.794415
vt 0.130765 0.798132
vt 0.159887 0.753954
vt 0.001728 0.600042
vt 0.053558 0.589387
vt 0.051347 0.368747
vt 0.095522 0.397848
vt 0.414507 0.395241
vt 0.275824 0.363379
vt 0.485672 0.507053
vt 0.455911 0.646191
vt 0.337557 0.723213
vt 0.200238 0.693462
vt 0.124855 0.575092
vt 0.155968 0.438068
vt 0.360504 0.469967
vt 0.395675 0.527396
vt 0.379305 0.595046
vt 0.320113 0.631935
vt 0.252615 0.616205
vt 0.216479 0.557275
vt 0.306319 0.542711
vt 0.233064 0.489962
vt 0.292788 0.453901
vt 0.696091 0.001465
vt 0.530346 0.107364
vt 0.889654 0.043515
vt 0.998272 0.209850
vt 0.958942 0.404004
vt 0.795325 0.513214
vn 0.353042 0.385895 -0.852318
vn 0.353042 0.385895 -0.852318
vn 0.353042 0.385895 -0.852318
vn 0.372913 0.342371 -0.862391
vn 0.372913 0.342371 -0.862391
vn 0.372913 0.342371 -0.862391
vn -0.359279 0.344350 -0.867376
vn -0.359279 0.344350 -0.867376
vn -0.359279 0.344350 -0.867376
vn -0.359988 0.349741 -0.864922
vn -0.359988 0.349741 -0.864922
vn -0.359988 0.349741 -0.864922
vn -0.842245 0.410991 -0.348869
vn -0.842245 0.410991 -0.348869
vn -0.842245 0.410991 -0.348869
vn -0.849503 0.384245 -0.361525
vn -0.849503 0.384245 -0.361525
vn -0.849503 0.384245 -0.361525
vn -0.874295 0.323201 0.362145
vn -0.874295 0.323201 0.362145
vn -0.874295 0.323201 0.362145
vn -0.873230 0.325606 0.362560
vn -0.873230 0.325606 0.362560
vn -0.873230 0.325606 0.362560
vn -0.346271 0.425733 0.835971
vn -0.346271 0.425733 0.835971
vn -0.346271 0.425733 0.835971
vn -0.344348 0.429691 0.834740
vn -0.344348 0.429691 0.834740
vn -0.344348 0.429691 0.834740
vn 0.360069 0.338670 0.869283
vn 0.360069 0.338670 0.869283
vn 0.360069 0.338670 0.869283
vn 0.365715 0.370847 0.853654
vn 0.365715 0.370847 0.853654
vn 0.365715 0.370847 0.853654
vn 0.869187 0.338959 0.360029
vn 0.869187 0.338959 0.360029
vn 0.869187 0.338959 0.360029
vn 0.859612 0.381509 0.339879
vn 0.859612 0.381509 0.339879
vn 0.859612 0.381508 0.339879
vn 0.877525 0.312780 -0.363483
vn 0.877524 0.312780 -0.363483
vn 0.877525 0.312780 -0.363483
vn 0.865153 0.340570 -0.368133
vn 0.865153 0.340570 -0.368133
vn 0.865153 0.340570 -0.368133
vn 0.276352 0.687177 -0.671876
vn 0.276352 0.687177 -0.671876
vn 0.276352 0.687177 -0.671876
vn 0.239806 0.723543 -0.647286
vn 0.239806 0.723543 -0.647286
vn 0.239806 0.723543 -0.647286
vn -0.255556 0.720542 -0.644601
vn -0.255556 0.720542 -0.644601
vn -0.255556 0.720542 -0.644601
vn -0.260051 0.745319 -0.613900
vn -0.260051 0.745319 -0.613899
vn -0.260051 0.745319 -0.613900
vn -0.654518 0.702605 -0.279199
vn -0.654518 0.702605 -0.279199
vn -0.654518 0.702605 -0.279199
vn -0.634841 0.730629 -0.251313
vn -0.634841 0.730629 -0.251313
vn -0.634841 0.730629 -0.251313
vn -0.587890 0.769853 0.248421
vn -0.587890 0.769853 0.248421
vn -0.587890 0.769853 0.248421
vn -0.636574 0.732247 0.242047
vn -0.636574 0.732247 0.242047
vn -0.636574 0.732247 0.242047
vn -0.292158 0.651777 0.699879
vn -0.292158 0.651777 0.699879
vn -0.292158 0.651777 0.699879
vn -0.262163 0.685240 0.679497
vn -0.262163 0.685240 0.679497
vn -0.262163 0.685240 0.679497
vn 0.245347 0.770124 0.588824
vn 0.245347 0.770124 0.588824
vn 0.245347 0.770124 0.588824
vn 0.247549 0.808629 0.533702
vn 0.247549 0.808629 0.533702
vn 0.247549 0.808629 0.533702
vn 0.590061 0.776179 0.222204
vn 0.590060 0.776179 0.222204
vn 0.590061 0.776179 0.222204
vn 0.642320 0.712354 0.282803
vn 0.642320 0.712354 0.282803
vn 0.642320 0.712354 0.282803
vn 0.573236 0.783933 -0.238432
vn 0.573236 0.783933 -0.238432
vn 0.573236 0.783933 -0.238431
vn 0.629069 0.741531 -0.233247
vn 0.629069 0.741531 -0.233247
vn 0.629069 0.741531 -0.233247
vn 0.175157 0.851585 -0.494087
vn 0.175157 0.851585 -0.494087
vn 0.175157 0.851585 -0.494087
vn 0.222226 0.828253 -0.514405
vn 0.222226 0.828253 -0.514405
vn 0.222226 0.828253 -0.514405
vn -0.216075 0.821396 -0.527844
vn -0.216075 0.821397 -0.527844
vn -0.216075 0.821396 -0.527844
vn -0.194041 0.796373 -0.572833
vn -0.194041 0.796373 -0.572833
vn -0.194041 0.796373 -0.572833
vn -0.551004 0.808786 -0.205571
vn -0.551004 0.808786 -0.205571
vn -0.551004 0.808786 -0.205571
vn -0.529567 0.837475 -0.134883
vn -0.529568 0.837475 -0.134883
vn -0.529567 0.837475 -0.134883
vn -0.539035 0.821165 0.187429
vn -0.539035 0.821165 0.187429
vn -0.539035 0.821165 0.187429
vn -0.591466 0.788010 0.170905
vn -0.591466 0.788010 0.170905
vn -0.591466 0.788010 0.170905
vn -0.173725 0.833292 0.524827
vn -0.173725 0.833292 0.524827
vn -0.173725 0.833292 0.524827
vn -0.142016 0.845523 0.514707
vn -0.142016 0.845522 0.514707
vn -0.142016 0.845523 0.514707
vn 0.254411 0.795086 0.550557
vn 0.254411 0.795086 0.550557
vn 0.254411 0.795086 0.550557
vn 0.230089 0.762787 0.604330
vn 0.230089 0.762787 0.604330
vn 0.230089 0.762787 0.604330
vn 0.529928 0.814101 0.237521
vn 0.529928 0.814101 0.237521
vn 0.529928 0.814101 0.237521
vn 0.529037 0.815388 0.235080
vn 0.529037 0.815388 0.235080
vn 0.529037 0.815388 0.235080
vn 0.587787 0.780310 -0.213597
vn 0.587787 0.780310 -0.213597
vn 0.587787 0.780310 -0.213597
vn 0.458641 0.848588 -0.263717
vn 0.458641 0.848588 -0.263717
vn 0.458641 0.848588 -0.263717
vn 0.149475 0.968963 -0.196894
vn 0.149475 0.968963 -0.196894
vn 0.149476 0.968963 -0.196894
vn -0.018273 0.983780 -0.178449
vn -0.018273 0.983780 -0.178449
vn -0.018273 0.983780 -0.178449
vn -0.209959 0.974645 0.077364
vn -0.209959 0.974645 0.077365
vn -0.209959 0.974645 0.077365
vn -0.225496 0.971637 -0.071231
vn -0.225496 0.971637 -0.071231
vn -0.225496 0.971637 -0.071231
vn 0.026431 0.981530 0.189475
vn 0.026431 0.981530 0.189475
vn 0.026431 0.981530 0.189475
vn 0.079211 0.978843 0.188660
vn 0.079211 0.978843 0.188660
vn 0.079211 0.978843 0.188660
vn 0.190923 0.975583 0.108562
vn 0.190923 0.975583 0.108562
vn 0.190923 0.975583 0.108562
vn 0.194578 0.969837 -0.146816
vn 0.194578 0.969837 -0.146816
vn 0.194578 0.969837 -0.146816
vn 0.000000 -1.000000 0.000000
vn 0.000000 -1.000000 0.000000
vn 0.000000 -1.000000 0.000000
vn 0.000000 -1.000000 0.000000
vn 0.000000 -1.000000 0.000000
vn 0.000000 -1.000000 0.000000
vn 0.000000 -1.000000 -0.000001
vn 0.000000 -1.000000 -0.000001
vn 0.000000 -1.000000 -0.000001
vn -0.000001 -1.000000 0.000000
vn -0.000001 -1.000000 0.000000
vn -0.000001 -1.000000 0.000000
vn 0.000000 -1.000000 0.000000
vn 0.000000 -1.000000 0.000000
vn 0.000000 -1.000000 0.000000
vn 0.000000 -1.000000 0.000000
vn 0.000000 -1.000000 0.000000
vn 0.000000 -1.000000 0.000000
s off
g pSphere1
usemtl initialShadingGroup
f 1/1/1 2/2/2 9/4/3
f 9/4/4 2/2/5 10/3/6
f 2/2/7 3/5/8 10/3/9
f 10/3/10 3/5/11 11/6/12
f 3/5/13 4/7/14 11/6/15
f 11/6/16 4/7/17 12/8/18
f 4/7/19 5/9/20 12/8/21
f 12/8/22 5/9/23 13/10/24
f 5/9/25 6/11/26 13/10/27
f 13/10/28 6/11/29 14/12/30
f 6/11/31 7/13/32 14/12/33
f 14/12/34 7/13/35 15/14/36
f 7/13/37 8/15/38 15/14/39
f 15/14/40 8/15/41 16/16/42
f 8/15/43 1/1/44 16/16/45
f 16/16/46 1/1/47 9/4/48
f 9/4/49 10/3/50 17/18/51
f 17/18/52 10/3/53 18/17/54
f 10/3/55 11/6/56 18/17/57
f 18/17/58 11/6/59 19/19/60
f 11/6/61 12/8/62 19/19/63
f 19/19/64 12/8/65 20/20/66
f 12/8/67 13/10/68 20/20/69
f 20/20/70 13/10/71 21/21/72
f 13/10/73 14/12/74 21/21/75
f 21/21/76 14/12/77 22/22/78
f 14/12/79 15/14/80 22/22/81
f 22/22/82 15/14/83 23/23/84
f 15/14/85 16/16/86 23/23/87
f 23/23/88 16/16/89 24/24/90
f 16/16/91 9/4/92 24/24/93
f 24/24/94 9/4/95 17/18/96
f 17/18/97 18/17/98 25/33/99
f 25/33/100 18/17/101 26/25/102
f 18/17/103 19/19/104 26/25/105
f 26/25/106 19/19/107 27/26/108
f 19/19/109 20/20/110 27/26/111
f 27/26/112 20/20/113 28/27/114
f 20/20/115 21/21/116 28/27/117
f 28/27/118 21/21/119 29/28/120
f 21/21/121 22/22/122 29/28/123
f 29/28/124 22/22/125 30/29/126
f 22/22/127 23/23/128 30/29/129
f 30/29/130 23/23/131 31/30/132
f 23/23/133 24/24/134 31/30/135
f 31/30/136 24/24/137 32/32/138
f 24/24/139 17/18/140 32/32/141
f 32/32/142 17/18/143 25/33/144
f 25/33/145 26/25/146 33/31/147
f 26/25/148 27/26/149 33/31/150
f 27/26/151 28/27/152 33/31/153
f 28/27/154 29/28/155 33/31/156
f 29/28/157 30/29/158 33/31/159
f 30/29/160 31/30/161 33/31/162
f 31/30/163 32/32/164 33/31/165
f 32/32/166 25/33/167 33/31/168
f 2/2/169 1/35/170 3/5/171
f 1/35/172 8/34/173 3/5/174
f 8/34/175 7/36/176 3/5/177
f 7/36/178 6/37/179 3/5/180
f 6/37/181 5/38/182 3/5/183
f 5/38/184 4/39/185 3/5/186
