# This file uses meters as units for non-parametric coordinates.

mtllib Better_Potato_Cut_4.mtl
g default
v -162.903960 52.003311 275.962126
v -163.179671 9.797058 254.246000
v -155.573653 -44.557007 280.574156
v -153.507400 -69.638306 326.111174
v -153.327498 -61.947723 392.281218
v -153.642074 -31.323639 426.140715
v -154.458785 42.141449 406.738981
v -145.775344 61.734756 332.746336
v -212.086837 48.963135 268.904753
v -205.262923 -3.643219 254.987516
v -208.083175 -45.273224 291.025847
v -212.512496 -73.399048 322.846373
v -212.930556 -60.722931 373.417570
v -202.847609 -0.143646 422.040831
v -199.442489 40.001709 398.616301
v -194.744033 55.815704 358.306486
vt 0.002592 0.311405
vt 0.743984 0.186716
vt 0.733270 0.099578
vt 0.041869 0.387294
vt 0.798160 0.040273
vt 0.106134 0.421996
vt 0.853840 0.001097
vt 0.198974 0.410793
vt 0.931684 0.030266
vt 0.337862 0.295866
vt 0.309766 0.210222
vt 0.221831 0.265344
vt 0.952765 0.195868
vt 0.112027 0.236537
vt 0.884648 0.214005
vt 0.661455 0.199767
vt 0.576390 0.202184
vt 0.510699 0.196867
vt 0.756284 0.262957
vt 0.844916 0.290356
vt 0.031448 0.251345
vt 0.246493 0.367788
vt 0.408330 0.295879
vt 0.510869 0.288265
vt 0.591034 0.283521
vt 0.683035 0.264459
vt 0.174122 0.179579
vt 0.239072 0.196928
vt 0.997408 0.136467
vt 0.430384 0.201920
vn 0.098895 0.454762 -0.885106
vn 0.098895 0.454762 -0.885106
vn 0.098895 0.454762 -0.885106
vn -0.094652 0.243114 -0.965369
vn -0.094652 0.243114 -0.965369
vn -0.094652 0.243114 -0.965369
vn -0.168569 -0.448702 -0.877640
vn -0.168569 -0.448702 -0.877640
vn -0.168569 -0.448702 -0.877640
vn 0.194482 -0.649506 -0.735063
vn 0.194482 -0.649506 -0.735063
vn 0.194482 -0.649506 -0.735063
vn 0.082300 -0.871370 -0.483675
vn 0.082300 -0.871370 -0.483675
vn 0.082300 -0.871370 -0.483675
vn -0.122696 -0.735069 -0.666798
vn -0.122696 -0.735069 -0.666798
vn -0.122696 -0.735069 -0.666798
vn -0.056905 -0.991686 0.115413
vn -0.056905 -0.991686 0.115413
vn -0.056905 -0.991686 0.115413
vn 0.048287 -0.968766 0.243229
vn 0.048287 -0.968766 0.243229
vn 0.048287 -0.968766 0.243229
vn -0.466337 -0.658222 0.590994
vn -0.466337 -0.658222 0.590994
vn -0.466337 -0.658222 0.590994
vn -0.256888 -0.578578 0.774116
vn -0.256888 -0.578578 0.774116
vn -0.256888 -0.578578 0.774116
vn 0.081527 0.255337 0.963409
vn 0.081527 0.255337 0.963409
vn 0.081527 0.255337 0.963409
vn -0.176450 0.507189 0.843579
vn -0.176450 0.507189 0.843579
vn -0.176450 0.507189 0.843579
vn -0.090163 0.965313 0.245035
vn -0.090163 0.965313 0.245035
vn -0.090163 0.965313 0.245035
vn 0.082585 0.924434 0.372291
vn 0.082585 0.924434 0.372291
vn 0.082585 0.924434 0.372291
vn -0.177624 0.977480 -0.113937
vn -0.177624 0.977480 -0.113937
vn -0.177624 0.977480 -0.113937
vn -0.052084 0.996441 -0.066273
vn -0.052084 0.996441 -0.066273
vn -0.052084 0.996441 -0.066273
vn 0.999940 0.010953 -0.000617
vn 0.999940 0.010953 -0.000617
vn 0.999940 0.010953 -0.000617
vn 0.993329 -0.005204 0.115194
vn 0.993329 -0.005204 0.115194
vn 0.993329 -0.005204 0.115194
vn 0.998252 -0.058962 0.004139
vn 0.998252 -0.058962 0.004139
vn 0.998252 -0.058962 0.004139
vn 0.995650 -0.054794 -0.075358
vn 0.995650 -0.054794 -0.075358
vn 0.995650 -0.054794 -0.075358
vn 0.972544 0.023967 -0.231481
vn 0.972544 0.023967 -0.231481
vn 0.972544 0.023967 -0.231481
vn 0.938559 0.153030 -0.309336
vn 0.938559 0.153030 -0.309336
vn 0.938559 0.153030 -0.309336
vn -0.963379 -0.178016 0.200528
vn -0.963379 -0.178016 0.200528
vn -0.963379 -0.178016 0.200528
vn -0.993767 0.103397 0.041671
vn -0.993767 0.103397 0.041671
vn -0.993767 0.103397 0.041671
vn -0.990051 0.140003 -0.014065
vn -0.990051 0.140003 -0.014065
vn -0.990051 0.140003 -0.014065
vn -0.987904 0.148289 -0.045337
vn -0.987904 0.148289 -0.045337
vn -0.987904 0.148289 -0.045337
vn -0.987513 0.146642 -0.057574
vn -0.987513 0.146642 -0.057574
vn -0.987513 0.146642 -0.057574
vn -0.991280 0.118139 0.058372
vn -0.991280 0.118139 0.058372
vn -0.991280 0.118139 0.058372
s off
g pasted__pasted__pasted__pasted__pasted__pSphere6 pasted__pasted__pasted__pasted__group17 pasted__pasted__pasted__group18 pasted__pasted__group22 pasted__group27 group28
usemtl initialShadingGroup
f 1/19/1 2/26/2 9/2/3
f 9/2/4 2/26/5 10/16/6
f 3/25/7 11/17/8 2/26/9
f 2/26/10 11/17/11 10/16/12
f 4/24/13 12/18/14 3/25/15
f 3/25/16 12/18/17 11/17/18
f 5/23/19 13/30/20 4/24/21
f 4/24/22 13/30/23 12/18/24
f 6/10/25 14/11/26 5/23/27
f 5/23/28 14/11/29 13/30/30
f 6/10/31 7/12/32 14/11/33
f 14/11/34 7/12/35 15/28/36
f 7/12/37 8/14/38 15/28/39
f 15/28/40 8/14/41 16/27/42
f 8/20/43 1/19/44 16/15/45
f 16/15/46 1/19/47 9/2/48
f 6/22/49 5/8/50 7/12/51
f 7/12/52 5/8/53 8/14/54
f 5/8/55 4/6/56 8/14/57
f 4/6/58 3/4/59 8/14/60
f 3/4/61 2/1/62 8/14/63
f 2/1/64 1/21/65 8/14/66
f 9/2/67 10/3/68 16/15/69
f 10/3/70 11/5/71 16/15/72
f 11/5/73 12/7/74 16/15/75
f 12/7/76 13/9/77 16/15/78
f 16/15/79 13/9/80 15/13/81
f 13/9/82 14/29/83 15/13/84
