# This file uses meters as units for non-parametric coordinates.

mtllib Better_Potato_Cut_1.mtl
g default
v -200.019942 52.003311 86.409760
v -200.295669 9.797058 64.693635
v -192.689650 -44.557007 91.021790
v -190.623397 -69.638306 136.558808
v -190.443496 -61.947723 202.728852
v -190.758071 -31.323639 236.588349
v -191.574782 42.141449 217.186616
v -182.891341 61.734756 143.193970
v -249.202834 48.963135 79.352387
v -242.378921 -3.643219 65.435151
v -236.365798 -49.622498 96.928559
v -249.628493 -73.399048 133.294007
v -250.046554 -60.722931 183.865204
v -239.963607 -0.143646 232.488465
v -236.558486 40.001709 209.063935
v -231.860030 55.815704 168.754120
v -299.672011 33.350113 98.469330
v -280.798232 -20.416290 78.534455
v -290.646438 -39.664215 93.504975
v -277.522353 -53.230530 124.729554
v -288.548049 -39.169373 202.711762
v -288.548049 -1.131927 227.832032
v -276.475600 29.783768 207.845490
v -291.107619 55.423462 120.257905
v -327.304580 27.191864 106.437958
v -327.304580 -0.904663 87.882721
v -316.865066 -24.155029 102.194306
v -327.304580 -40.639221 151.234223
v -330.556716 -29.141968 182.119294
v -317.515883 17.498657 208.608124
v -330.556655 27.466125 182.119324
v -327.304580 38.829880 151.234253
v -356.448256 14.301086 126.990662
v -356.448256 -0.904694 116.948639
v -351.797927 -14.783264 119.706086
v -356.448256 -22.408875 151.234253
v -356.448256 -16.110443 175.477814
v -356.448256 -0.904663 185.519837
v -356.448256 14.301086 175.477814
v -356.448256 20.599518 151.234253
v -362.799941 -6.400482 157.942933
vt 0.495980 0.171355
vt 0.100648 0.001827
vt 0.020574 0.081105
vt 0.002130 0.175668
vt 0.052659 0.288230
vt 0.843274 0.384903
vt 0.125407 0.331345
vt 0.950032 0.481700
vt 0.244525 0.255751
vt 0.290652 0.325778
vt 0.237979 0.113560
vt 0.359485 0.281401
vt 0.630563 0.325548
vt 0.529866 0.355084
vt 0.664562 0.355810
vt 0.725852 0.365834
vt 0.822994 0.472333
vt 0.277971 0.457437
vt 0.320440 0.399552
vt 0.474943 0.348947
vt 0.589189 0.403795
vt 0.534386 0.408988
vt 0.637855 0.405296
vt 0.704131 0.469584
vt 0.743313 0.514434
vt 0.354167 0.477028
vt 0.411796 0.469961
vt 0.459348 0.434736
vt 0.578129 0.476794
vt 0.536802 0.479077
vt 0.610611 0.475149
vt 0.663152 0.517447
vt 0.463738 0.565543
vt 0.434375 0.541823
vt 0.449640 0.511784
vt 0.488034 0.488520
vt 0.492936 0.538633
vt 0.614159 0.250003
vt 0.714499 0.270703
vt 0.773702 0.325790
vt 0.519762 0.255180
vt 0.373650 0.178225
vt 0.187548 0.014509
vt 0.936077 0.318765
vt 0.830464 0.238133
vt 0.731918 0.191282
vt 0.603215 0.167549
vt 0.813508 0.589648
vt 0.718608 0.580169
vt 0.871844 0.538024
vt 0.223222 0.378799
vt 0.996946 0.380256
vt 0.701068 0.550035
vt 0.515047 0.563531
vt 0.569035 0.528174
vt 0.563481 0.500174
vn 0.098895 0.454762 -0.885105
vn 0.098895 0.454762 -0.885105
vn 0.098895 0.454762 -0.885105
vn -0.094652 0.243114 -0.965369
vn -0.094652 0.243114 -0.965369
vn -0.094652 0.243114 -0.965369
vn -0.069550 -0.442744 -0.893947
vn -0.069550 -0.442744 -0.893947
vn -0.069550 -0.442744 -0.893947
vn 0.159107 -0.543652 -0.824092
vn 0.159107 -0.543652 -0.824092
vn 0.159107 -0.543652 -0.824092
vn 0.082300 -0.871370 -0.483675
vn 0.082300 -0.871370 -0.483675
vn 0.082300 -0.871370 -0.483675
vn 0.024370 -0.840778 -0.540832
vn 0.024370 -0.840778 -0.540832
vn 0.024370 -0.840778 -0.540832
vn -0.056905 -0.991686 0.115413
vn -0.056905 -0.991686 0.115413
vn -0.056905 -0.991686 0.115413
vn 0.048287 -0.968766 0.243229
vn 0.048287 -0.968766 0.243229
vn 0.048287 -0.968766 0.243229
vn -0.466337 -0.658222 0.590994
vn -0.466337 -0.658222 0.590994
vn -0.466337 -0.658222 0.590994
vn -0.256888 -0.578578 0.774116
vn -0.256888 -0.578578 0.774116
vn -0.256888 -0.578578 0.774116
vn 0.081527 0.255338 0.963409
vn 0.081527 0.255337 0.963409
vn 0.081527 0.255337 0.963409
vn -0.176450 0.507189 0.843579
vn -0.176450 0.507189 0.843579
vn -0.176450 0.507189 0.843579
vn -0.090163 0.965313 0.245034
vn -0.090163 0.965313 0.245034
vn -0.090163 0.965313 0.245034
vn 0.082585 0.924434 0.372292
vn 0.082585 0.924434 0.372292
vn 0.082585 0.924434 0.372292
vn -0.177624 0.977480 -0.113937
vn -0.177624 0.977480 -0.113937
vn -0.177624 0.977480 -0.113937
vn -0.052084 0.996441 -0.066273
vn -0.052084 0.996441 -0.066273
vn -0.052084 0.996441 -0.066273
vn -0.389497 0.188007 -0.901635
vn -0.389497 0.188007 -0.901635
vn -0.389497 0.188007 -0.901635
vn -0.399081 0.192311 -0.896521
vn -0.399081 0.192311 -0.896521
vn -0.399082 0.192311 -0.896521
vn -0.032624 -0.567698 -0.822590
vn -0.032624 -0.567698 -0.822590
vn -0.032624 -0.567698 -0.822590
vn -0.058392 -0.594104 -0.802266
vn -0.058392 -0.594104 -0.802266
vn -0.058392 -0.594104 -0.802266
vn -0.340626 -0.725199 -0.598381
vn -0.340626 -0.725199 -0.598381
vn -0.340626 -0.725199 -0.598381
vn -0.148811 -0.928294 -0.340773
vn -0.148811 -0.928294 -0.340773
vn -0.148811 -0.928294 -0.340773
vn -0.391983 -0.893125 0.220629
vn -0.391983 -0.893125 0.220629
vn -0.391983 -0.893125 0.220629
vn -0.596885 -0.800090 0.059874
vn -0.596885 -0.800090 0.059874
vn -0.596885 -0.800090 0.059874
vn 0.028564 -0.628580 0.777220
vn 0.028564 -0.628580 0.777220
vn 0.028564 -0.628580 0.777220
vn -0.068605 -0.549782 0.832486
vn -0.068605 -0.549782 0.832486
vn -0.068605 -0.549782 0.832486
vn -0.092425 0.507653 0.856590
vn -0.092425 0.507653 0.856590
vn -0.092425 0.507653 0.856590
vn -0.173114 0.581501 0.794914
vn -0.173114 0.581501 0.794914
vn -0.173114 0.581501 0.794914
vn -0.243563 0.912206 0.329480
vn -0.243563 0.912206 0.329480
vn -0.243563 0.912206 0.329480
vn -0.260685 0.913931 0.311086
vn -0.260685 0.913931 0.311086
vn -0.260685 0.913931 0.311086
vn 0.066300 0.993819 -0.089037
vn 0.066300 0.993819 -0.089037
vn 0.066300 0.993819 -0.089037
vn -0.430248 0.713191 -0.553395
vn -0.430248 0.713191 -0.553395
vn -0.430248 0.713191 -0.553395
vn -0.050216 0.331659 -0.942062
vn -0.050216 0.331659 -0.942062
vn -0.050216 0.331659 -0.942062
vn -0.341591 0.517933 -0.784258
vn -0.341591 0.517933 -0.784258
vn -0.341591 0.517933 -0.784258
vn -0.354799 -0.454107 -0.817254
vn -0.354799 -0.454107 -0.817254
vn -0.354799 -0.454107 -0.817254
vn -0.548609 -0.602892 -0.579267
vn -0.548609 -0.602891 -0.579267
vn -0.548609 -0.602891 -0.579267
vn -0.537362 -0.832351 -0.135776
vn -0.537362 -0.832351 -0.135776
vn -0.537362 -0.832351 -0.135776
vn -0.407231 -0.836032 -0.367713
vn -0.407231 -0.836032 -0.367713
vn -0.407231 -0.836032 -0.367713
vn -0.165358 -0.974401 0.152317
vn -0.165358 -0.974401 0.152317
vn -0.165358 -0.974401 0.152317
vn -0.355480 -0.887580 0.292978
vn -0.355480 -0.887580 0.292978
vn -0.355480 -0.887580 0.292978
vn -0.672309 -0.407949 0.617720
vn -0.672309 -0.407949 0.617720
vn -0.672309 -0.407949 0.617720
vn -0.477810 -0.329002 0.814528
vn -0.477809 -0.329002 0.814528
vn -0.477809 -0.329002 0.814528
vn -0.158441 0.578945 0.799824
vn -0.158441 0.578945 0.799824
vn -0.158441 0.578945 0.799824
vn -0.249040 0.859646 0.446081
vn -0.249040 0.859646 0.446081
vn -0.249040 0.859646 0.446081
vn -0.184855 0.934429 0.304419
vn -0.184855 0.934429 0.304419
vn -0.184855 0.934429 0.304419
vn -0.147231 0.933187 0.327851
vn -0.147231 0.933187 0.327851
vn -0.147231 0.933187 0.327851
vn -0.335150 0.724534 -0.602267
vn -0.335150 0.724534 -0.602267
vn -0.335150 0.724534 -0.602267
vn -0.550191 0.808209 -0.209972
vn -0.550191 0.808209 -0.209972
vn -0.550191 0.808209 -0.209972
vn -0.639682 0.423582 -0.641393
vn -0.639682 0.423582 -0.641393
vn -0.639682 0.423582 -0.641393
vn -0.639682 0.423580 -0.641395
vn -0.639682 0.423580 -0.641395
vn -0.639682 0.423580 -0.641395
vn -0.564141 -0.601485 -0.565651
vn -0.564141 -0.601485 -0.565651
vn -0.564141 -0.601485 -0.565651
vn -0.492068 -0.325314 -0.807490
vn -0.492068 -0.325314 -0.807490
vn -0.492069 -0.325314 -0.807490
vn -0.408481 -0.835399 -0.367766
vn -0.408481 -0.835399 -0.367766
vn -0.408481 -0.835399 -0.367766
vn -0.510246 -0.815699 -0.272550
vn -0.510246 -0.815699 -0.272550
vn -0.510246 -0.815699 -0.272550
vn -0.513290 -0.820564 0.251414
vn -0.513290 -0.820564 0.251414
vn -0.513290 -0.820564 0.251414
vn -0.483021 -0.847476 0.220172
vn -0.483021 -0.847476 0.220172
vn -0.483021 -0.847475 0.220172
vn -0.321347 -0.398124 0.859205
vn -0.321347 -0.398124 0.859205
vn -0.321347 -0.398124 0.859205
vn -0.441036 -0.494588 0.748912
vn -0.441036 -0.494588 0.748912
vn -0.441036 -0.494588 0.748912
vn -0.597476 0.607941 0.522906
vn -0.597476 0.607941 0.522906
vn -0.597476 0.607941 0.522906
vn -0.443090 0.494031 0.748067
vn -0.443090 0.494031 0.748067
vn -0.443090 0.494031 0.748067
vn -0.513745 0.821291 0.248088
vn -0.513745 0.821291 0.248088
vn -0.513745 0.821291 0.248088
vn -0.486360 0.845685 0.219707
vn -0.486360 0.845685 0.219707
vn -0.486360 0.845685 0.219707
vn -0.517909 0.827950 -0.215100
vn -0.517909 0.827950 -0.215100
vn -0.517909 0.827950 -0.215100
vn -0.517911 0.827949 -0.215100
vn -0.517911 0.827949 -0.215100
vn -0.517911 0.827949 -0.215100
vn -0.985762 0.092665 -0.140312
vn -0.985762 0.092665 -0.140312
vn -0.985762 0.092665 -0.140312
vn -0.919236 -0.345514 -0.188747
vn -0.919236 -0.345514 -0.188747
vn -0.919236 -0.345514 -0.188747
vn -0.936027 -0.284675 -0.206916
vn -0.936027 -0.284675 -0.206916
vn -0.936027 -0.284675 -0.206916
vn -0.908480 -0.404501 0.105088
vn -0.908480 -0.404501 0.105088
vn -0.908480 -0.404501 0.105088
vn -0.953016 -0.166934 0.252772
vn -0.953016 -0.166934 0.252772
vn -0.953016 -0.166934 0.252772
vn -0.971516 0.130593 0.197741
vn -0.971516 0.130593 0.197741
vn -0.971516 0.130593 0.197741
vn -0.967863 0.243399 0.063235
vn -0.967863 0.243399 0.063235
vn -0.967863 0.243399 0.063235
vn -0.974912 0.215439 -0.055971
vn -0.974912 0.215439 -0.055971
vn -0.974912 0.215439 -0.055971
vn 0.999940 0.010953 -0.000617
vn 0.999940 0.010953 -0.000617
vn 0.999940 0.010953 -0.000617
vn 0.993329 -0.005205 0.115194
vn 0.993329 -0.005205 0.115194
vn 0.993329 -0.005205 0.115194
vn 0.998252 -0.058962 0.004139
vn 0.998252 -0.058962 0.004139
vn 0.998252 -0.058962 0.004139
vn 0.995650 -0.054794 -0.075358
vn 0.995650 -0.054794 -0.075358
vn 0.995650 -0.054794 -0.075358
vn 0.972544 0.023968 -0.231481
vn 0.972544 0.023968 -0.231481
vn 0.972544 0.023968 -0.231481
vn 0.938560 0.153027 -0.309336
vn 0.938560 0.153027 -0.309336
vn 0.938560 0.153027 -0.309336
s off
g pasted__pasted__pasted__pasted__pSphere6 pasted__pasted__pasted__group17 pasted__pasted__group18 pasted__group22 group27
usemtl initialShadingGroup
f 1/1/1 2/47/2 9/41/3
f 9/41/4 2/47/5 10/38/6
f 3/46/7 11/39/8 2/47/9
f 2/47/10 11/39/11 10/38/12
f 4/45/13 12/40/14 3/46/15
f 3/46/16 12/40/17 11/39/18
f 5/44/19 13/6/20 4/45/21
f 4/45/22 13/6/23 12/40/24
f 6/52/25 14/8/26 5/44/27
f 5/44/28 14/8/29 13/6/30
f 6/7/31 7/9/32 14/51/33
f 14/51/34 7/9/35 15/10/36
f 7/9/37 8/42/38 15/10/39
f 15/10/40 8/42/41 16/12/42
f 8/42/43 1/1/44 16/12/45
f 16/12/46 1/1/47 9/41/48
f 10/38/49 18/13/50 9/41/51
f 9/41/52 18/13/53 17/14/54
f 10/38/55 11/39/56 18/13/57
f 18/13/58 11/39/59 19/15/60
f 12/40/61 20/16/62 11/39/63
f 11/39/64 20/16/65 19/15/66
f 13/6/67 21/17/68 12/40/69
f 12/40/70 21/17/71 20/16/72
f 13/6/73 14/8/74 21/17/75
f 21/17/76 14/8/77 22/50/78
f 14/51/79 15/10/80 22/18/81
f 22/18/82 15/10/83 23/19/84
f 15/10/85 16/12/86 23/19/87
f 23/19/88 16/12/89 24/20/90
f 16/12/91 9/41/92 24/20/93
f 24/20/94 9/41/95 17/14/96
f 18/13/97 26/21/98 17/14/99
f 17/14/100 26/21/101 25/22/102
f 18/13/103 19/15/104 26/21/105
f 26/21/106 19/15/107 27/23/108
f 19/15/109 20/16/110 27/23/111
f 27/23/112 20/16/113 28/24/114
f 20/16/115 21/17/116 28/24/117
f 28/24/118 21/17/119 29/25/120
f 22/50/121 30/48/122 21/17/123
f 21/17/124 30/48/125 29/25/126
f 22/18/127 23/19/128 30/26/129
f 30/26/130 23/19/131 31/27/132
f 23/19/133 24/20/134 31/27/135
f 31/27/136 24/20/137 32/28/138
f 17/14/139 25/22/140 24/20/141
f 24/20/142 25/22/143 32/28/144
f 26/21/145 34/29/146 25/22/147
f 25/22/148 34/29/149 33/30/150
f 26/21/151 27/23/152 34/29/153
f 34/29/154 27/23/155 35/31/156
f 27/23/157 28/24/158 35/31/159
f 35/31/160 28/24/161 36/32/162
f 28/24/163 29/25/164 36/32/165
f 36/32/166 29/25/167 37/53/168
f 30/48/169 38/49/170 29/25/171
f 29/25/172 38/49/173 37/53/174
f 30/26/175 31/27/176 38/34/177
f 38/34/178 31/27/179 39/35/180
f 32/28/181 40/36/182 31/27/183
f 31/27/184 40/36/185 39/35/186
f 25/22/187 33/30/188 32/28/189
f 32/28/190 33/30/191 40/36/192
f 33/30/193 34/56/194 41/37/195
f 34/56/196 35/55/197 41/37/198
f 35/55/199 36/54/200 41/37/201
f 36/54/202 37/33/203 41/37/204
f 37/33/205 38/34/206 41/37/207
f 38/34/208 39/35/209 41/37/210
f 39/35/211 40/36/212 41/37/213
f 40/36/214 33/30/215 41/37/216
f 6/7/217 5/5/218 7/9/219
f 7/9/220 5/5/221 8/11/222
f 5/5/223 4/4/224 8/11/225
f 4/4/226 3/3/227 8/11/228
f 3/3/229 2/2/230 8/11/231
f 2/2/232 1/43/233 8/11/234
